<svg id="logo.svg" xmlns="http://www.w3.org/2000/svg" width="298.75" height="52.281" viewBox="0 0 298.75 52.281">
  <defs>
    <style>
      .cls-1 {
        fill: #526064;
        fill-rule: evenodd;
      }
    </style>
  </defs>
  <path id="webdesign" class="cls-1" d="M190.278,56.651l2.856,8.252c0.294,0.84.567,1.47,1.47,1.47,0.881,0,1.175-.609,1.448-1.575l3.087-10.918a2.69,2.69,0,0,0,.126-0.672c0-.462-0.315-0.756-1.155-0.756a1.1,1.1,0,0,0-1.26,1.092l-2.288,9.112-2.856-8.378c-0.294-.882-0.483-1.3-1.344-1.3s-1.05.42-1.343,1.3l-2.856,8.378-2.288-9.112a1.121,1.121,0,0,0-1.3-1.092c-0.84,0-1.155.294-1.155,0.756a2.69,2.69,0,0,0,.126.672L184.5,64.8c0.252,0.966.567,1.575,1.449,1.575,0.9,0,1.176-.63,1.47-1.47Zm15.436-1.995h3.7a1.281,1.281,0,0,0,.818-0.168,0.982,0.982,0,0,0,.357-0.861,0.939,0.939,0,0,0-.357-0.84,1.284,1.284,0,0,0-.818-0.189h-4.871a0.937,0.937,0,0,0-1.113,1.113V65.07a0.936,0.936,0,0,0,1.113,1.113h5.417a1.284,1.284,0,0,0,.818-0.168,0.982,0.982,0,0,0,.357-0.861,0.939,0.939,0,0,0-.357-0.84,1.287,1.287,0,0,0-.818-0.189h-4.242V59.947h2.919a1.285,1.285,0,0,0,.819-0.168,0.982,0.982,0,0,0,.357-0.861,0.94,0.94,0,0,0-.357-0.84,1.289,1.289,0,0,0-.819-0.189h-2.919V54.656Zm18.71,7.663a3.635,3.635,0,0,0-2.877-3.569,3.24,3.24,0,0,0,2.058-3.044c0-2.415-2.163-3.254-4.766-3.254a13.026,13.026,0,0,0-2.142.147,1.214,1.214,0,0,0-1.218,1.386V64.629a1.2,1.2,0,0,0,.966,1.47,9.292,9.292,0,0,0,2.226.21,8.744,8.744,0,0,0,3.548-.588A3.556,3.556,0,0,0,224.424,62.32ZM217.747,54.4s0.567-.063,1.029-0.063c1.239,0,2.435.441,2.435,1.7a1.7,1.7,0,0,1-.692,1.386,3.542,3.542,0,0,1-2.226.546h-0.546V54.4Zm0,5.4h0.483a5.443,5.443,0,0,1,2.624.462,2.087,2.087,0,0,1,1.176,1.974c0,1.575-1.218,2.2-3.3,2.2a5.967,5.967,0,0,1-.987-0.063V59.8Zm29.8-.5a6.309,6.309,0,0,0-2.562-5.522,9.463,9.463,0,0,0-5.48-1.323,15.858,15.858,0,0,0-2.855.21,1.181,1.181,0,0,0-1.176,1.386V64.734a1.052,1.052,0,0,0,.714,1.26,9.493,9.493,0,0,0,2.813.315,10.5,10.5,0,0,0,5.8-1.365A6.319,6.319,0,0,0,247.544,59.3ZM237.8,54.551a10.366,10.366,0,0,1,1.784-.126,6.027,6.027,0,0,1,3.884,1.008,4.77,4.77,0,0,1,1.68,3.989c0,4.661-3.989,4.913-5.753,4.913a13.318,13.318,0,0,1-1.595-.084v-9.7Zm16.3,0.1h3.7a1.285,1.285,0,0,0,.819-0.168,0.982,0.982,0,0,0,.357-0.861,0.939,0.939,0,0,0-.357-0.84,1.288,1.288,0,0,0-.819-0.189h-4.871a0.937,0.937,0,0,0-1.113,1.113V65.07a0.936,0.936,0,0,0,1.113,1.113h5.417a1.286,1.286,0,0,0,.819-0.168,0.984,0.984,0,0,0,.356-0.861,0.941,0.941,0,0,0-.356-0.84,1.288,1.288,0,0,0-.819-0.189H254.1V59.947h2.919a1.285,1.285,0,0,0,.819-0.168,0.982,0.982,0,0,0,.357-0.861,0.94,0.94,0,0,0-.357-0.84,1.289,1.289,0,0,0-.819-0.189H254.1V54.656Zm11.3,1.218a1.675,1.675,0,0,1,1.911-1.575c1.26,0,1.911.861,2.561,0.861a1.125,1.125,0,0,0,.966-1.092c0-.924-1.721-1.743-3.506-1.743-2.457,0-4.262,1.47-4.262,3.674,0,2.688,2.708,3.653,3.947,4.3a2.582,2.582,0,0,1,1.764,2.226,1.945,1.945,0,0,1-2.184,1.911c-1.554,0-2.2-1.113-2.918-1.113a1.1,1.1,0,0,0-.945,1.113,1.64,1.64,0,0,0,1.008,1.26,6.372,6.372,0,0,0,2.918.714c2.352,0,4.451-1.407,4.451-3.989a4.066,4.066,0,0,0-2.183-3.59C267.474,57.953,265.4,57.407,265.4,55.874Zm12.243-2.142a1.524,1.524,0,0,0-.168-0.924,1.2,1.2,0,0,0-.987-0.357,1.216,1.216,0,0,0-1.008.357,1.524,1.524,0,0,0-.168.924V65.007a1.6,1.6,0,0,0,.168.945,1.216,1.216,0,0,0,1.008.357,1.2,1.2,0,0,0,.987-0.357,1.6,1.6,0,0,0,.168-0.945V53.732Zm16.273,8.084a1.455,1.455,0,0,0-.168-0.9,1.259,1.259,0,0,0-.986-0.378,1.279,1.279,0,0,0-1.008.378,1.455,1.455,0,0,0-.168.9v2.037a5.939,5.939,0,0,1-2.394.483c-2.666,0-4.871-1.659-4.871-5.06,0-3.59,2.436-4.913,4.745-4.913a6.4,6.4,0,0,1,2.331.441,6.542,6.542,0,0,0,1.428.588,1.135,1.135,0,0,0,.965-1.176,1.269,1.269,0,0,0-.923-1.071,7.967,7.967,0,0,0-3.675-.84c-3.548,0-7.264,1.995-7.264,7.034,0,4.682,3.233,7.055,7.243,7.055a9.8,9.8,0,0,0,3.465-.63c1.112-.42,1.28-0.8,1.28-1.554V61.816Zm6.743-5.249,6.991,8.608c0.63,0.777.966,1.176,1.659,1.176a0.9,0.9,0,0,0,1.029-.945V53.732a1.448,1.448,0,0,0-.189-0.9,1.083,1.083,0,0,0-.945-0.378,1.11,1.11,0,0,0-.945.378,1.455,1.455,0,0,0-.168.9v8.42L301.2,53.627c-0.609-.735-0.924-1.2-1.722-1.2a0.913,0.913,0,0,0-1.071.945V65.007a1.525,1.525,0,0,0,.168.924,1.127,1.127,0,0,0,.966.378,1.11,1.11,0,0,0,.945-0.378,1.525,1.525,0,0,0,.168-0.924v-8.44Z" transform="translate(-180.594 -52.313)"/>
  <path id="mizuki" class="cls-1" d="M192.456,97.889l-6.077-12.154c-0.589-1.147-1.024-1.891-2.295-1.891a1.837,1.837,0,0,0-1.333.465,2.474,2.474,0,0,0-.558,1.612l-1.519,16.216a7.764,7.764,0,0,0-.093.992c0,0.806.465,1.24,1.581,1.24,1.24,0,1.674-.5,1.736-1.395l1.085-12.93,5.674,11.442c0.435,0.93.745,1.55,1.675,1.55,1.023,0,1.3-.651,1.736-1.55L199.8,90.075l0.961,12.9c0.062,0.93.589,1.395,1.768,1.395s1.643-.465,1.643-1.178c0-.31-0.062-0.806-0.093-1.147l-1.4-16.061a2.878,2.878,0,0,0-.465-1.612,1.586,1.586,0,0,0-1.3-.527c-1.271,0-1.736.837-2.294,1.891ZM214.588,85.8a2.252,2.252,0,0,0-.248-1.364,1.766,1.766,0,0,0-1.457-.527,1.8,1.8,0,0,0-1.489.527,2.252,2.252,0,0,0-.248,1.364v16.65a2.356,2.356,0,0,0,.248,1.395,1.8,1.8,0,0,0,1.489.527,1.766,1.766,0,0,0,1.457-.527,2.356,2.356,0,0,0,.248-1.395V85.8Zm17.206,1.364-10.449,14.263a2.622,2.622,0,0,0-.589,1.519c0,0.806.558,1.24,1.612,1.24h12.775a1.947,1.947,0,0,0,1.24-.248,1.484,1.484,0,0,0,.5-1.271,1.458,1.458,0,0,0-.5-1.24,1.9,1.9,0,0,0-1.209-.28h-9.922L235.7,86.882a2.623,2.623,0,0,0,.589-1.519c0-.806-0.558-1.24-1.612-1.24h-11.5a1.946,1.946,0,0,0-1.24.248,1.484,1.484,0,0,0-.5,1.271,1.459,1.459,0,0,0,.5,1.24,1.9,1.9,0,0,0,1.209.279h8.651Zm19.344,14.511a5.192,5.192,0,0,1-4.155-1.582,6.691,6.691,0,0,1-1.085-4.4V85.8a2.252,2.252,0,0,0-.248-1.364,1.766,1.766,0,0,0-1.458-.527,1.794,1.794,0,0,0-1.488.527,2.252,2.252,0,0,0-.248,1.364V95.47c0,2.2,0,4.5,1.829,6.574,1.3,1.488,3.349,2.542,6.822,2.542,3.286,0,5.457-.961,6.821-2.542,1.829-2.078,1.829-4.62,1.829-6.574V85.8a2.252,2.252,0,0,0-.248-1.364,2.277,2.277,0,0,0-2.914,0,2.252,2.252,0,0,0-.248,1.364v9.891a6.691,6.691,0,0,1-1.085,4.4A5.126,5.126,0,0,1,251.138,101.672ZM270.946,85.8a2.252,2.252,0,0,0-.248-1.364,1.768,1.768,0,0,0-1.458-.527,1.794,1.794,0,0,0-1.488.527A2.252,2.252,0,0,0,267.5,85.8v16.65a2.356,2.356,0,0,0,.248,1.395,1.8,1.8,0,0,0,1.488.527,1.768,1.768,0,0,0,1.458-.527,2.356,2.356,0,0,0,.248-1.395v-8.31l7.627,8.589c1.054,1.209,1.519,1.643,2.822,1.643s1.767-.434,1.767-0.992a2.086,2.086,0,0,0-.682-1.24l-8-8.775,6.915-7.348a1.86,1.86,0,0,0,.682-1.209c0-.558-0.434-0.9-1.582-0.9-1.457,0-1.984.527-2.976,1.612l-6.573,7.348V85.8Zm21.017,0a2.252,2.252,0,0,0-.248-1.364,1.766,1.766,0,0,0-1.457-.527,1.794,1.794,0,0,0-1.488.527,2.252,2.252,0,0,0-.248,1.364v16.65a2.356,2.356,0,0,0,.248,1.395,1.8,1.8,0,0,0,1.488.527,1.766,1.766,0,0,0,1.457-.527,2.356,2.356,0,0,0,.248-1.395V85.8Zm28.645,12.092-6.077-12.154c-0.589-1.147-1.023-1.891-2.294-1.891a1.84,1.84,0,0,0-1.334.465,2.474,2.474,0,0,0-.558,1.612l-1.519,16.216a7.764,7.764,0,0,0-.093.992c0,0.806.465,1.24,1.581,1.24,1.241,0,1.675-.5,1.737-1.395l1.085-12.93,5.674,11.442c0.434,0.93.744,1.55,1.674,1.55,1.023,0,1.3-.651,1.737-1.55l5.736-11.411,0.961,12.9c0.062,0.93.589,1.395,1.767,1.395s1.643-.465,1.643-1.178c0-.31-0.062-0.806-0.093-1.147l-1.4-16.061a2.878,2.878,0,0,0-.465-1.612,1.584,1.584,0,0,0-1.3-.527c-1.271,0-1.736.837-2.295,1.891Zm30.845,4.806c0.434,1.116.837,1.674,2.109,1.674,1.085,0,1.612-.4,1.612-1.085a2.87,2.87,0,0,0-.248-1.023l-6.48-16.371c-0.5-1.24-.869-2.077-2.078-2.077-1.24,0-1.643.837-2.139,2.077l-6.759,16.371a2.638,2.638,0,0,0-.279,1.023c0,0.682.465,1.085,1.55,1.085,1.4,0,1.705-.682,2.108-1.674l1.675-4.372h7.286Zm-5.24-13.829,2.481,6.48h-5.023Zm18.041-3.07a2.252,2.252,0,0,0-.248-1.364,1.766,1.766,0,0,0-1.457-.527,1.794,1.794,0,0,0-1.488.527,2.252,2.252,0,0,0-.248,1.364v16.65a2.356,2.356,0,0,0,.248,1.395,1.8,1.8,0,0,0,1.488.527,1.766,1.766,0,0,0,1.457-.527,2.356,2.356,0,0,0,.248-1.395v-8.31l7.628,8.589c1.054,1.209,1.519,1.643,2.821,1.643s1.768-.434,1.768-0.992a2.086,2.086,0,0,0-.682-1.24l-8-8.775,6.914-7.348a1.857,1.857,0,0,0,.683-1.209c0-.558-0.434-0.9-1.582-0.9-1.457,0-1.984.527-2.976,1.612l-6.574,7.348V85.8Zm21.018,0a2.252,2.252,0,0,0-.248-1.364,1.766,1.766,0,0,0-1.457-.527,1.794,1.794,0,0,0-1.488.527,2.252,2.252,0,0,0-.248,1.364v16.65a2.356,2.356,0,0,0,.248,1.395,1.8,1.8,0,0,0,1.488.527,1.766,1.766,0,0,0,1.457-.527,2.356,2.356,0,0,0,.248-1.395V85.8Zm14.385,7.472-4.527-7.782a2.466,2.466,0,0,0-2.481-1.581c-1.147,0-1.7.372-1.7,0.992a2.932,2.932,0,0,0,.558,1.364l6.325,10.232v5.984a2.251,2.251,0,0,0,.248,1.364,1.768,1.768,0,0,0,1.458.527,1.725,1.725,0,0,0,1.457-.527,2.343,2.343,0,0,0,.279-1.395V96.494l6.542-10.325a2.536,2.536,0,0,0,.558-1.3c0-.558-0.4-0.961-1.55-0.961a2.424,2.424,0,0,0-2.449,1.55Zm24.832,9.426c0.434,1.116.837,1.674,2.108,1.674,1.086,0,1.613-.4,1.613-1.085a2.87,2.87,0,0,0-.248-1.023L421.481,85.89c-0.5-1.24-.868-2.077-2.077-2.077-1.24,0-1.643.837-2.139,2.077l-6.76,16.371a2.638,2.638,0,0,0-.279,1.023c0,0.682.465,1.085,1.551,1.085,1.4,0,1.705-.682,2.108-1.674l1.674-4.372h7.287Zm-5.24-13.829,2.48,6.48h-5.023Zm25.545,9.023-6.078-12.154c-0.589-1.147-1.023-1.891-2.294-1.891a1.837,1.837,0,0,0-1.333.465,2.474,2.474,0,0,0-.558,1.612l-1.52,16.216a7.764,7.764,0,0,0-.093.992c0,0.806.465,1.24,1.582,1.24,1.24,0,1.674-.5,1.736-1.395l1.085-12.93L443,101.486c0.434,0.93.744,1.55,1.675,1.55,1.023,0,1.3-.651,1.736-1.55l5.736-11.411,0.961,12.9c0.062,0.93.589,1.395,1.768,1.395s1.643-.465,1.643-1.178c0-.31-0.062-0.806-0.093-1.147l-1.395-16.061a2.876,2.876,0,0,0-.466-1.612,1.584,1.584,0,0,0-1.3-.527c-1.271,0-1.736.837-2.294,1.891Zm30.845,4.806c0.434,1.116.837,1.674,2.108,1.674,1.085,0,1.612-.4,1.612-1.085a2.87,2.87,0,0,0-.248-1.023l-6.48-16.371c-0.5-1.24-.868-2.077-2.077-2.077-1.241,0-1.644.837-2.14,2.077l-6.759,16.371a2.638,2.638,0,0,0-.279,1.023c0,0.682.465,1.085,1.55,1.085,1.4,0,1.7-.682,2.109-1.674l1.674-4.372H474ZM470.4,88.866l2.48,6.48h-5.023Z" transform="translate(-180.594 -52.313)"/>
</svg>
