<?xml version="1.0" encoding="utf-8"?>
<!-- Generator: Adobe Illustrator 24.2.3, SVG Export Plug-In . SVG Version: 6.00 Build 0)  -->
<svg version="1.1" id="レイヤー_1" xmlns="http://www.w3.org/2000/svg" xmlns:xlink="http://www.w3.org/1999/xlink" x="0px"
	 y="0px" viewBox="0 0 202 202" style="enable-background:new 0 0 202 202;" xml:space="preserve">
<style type="text/css">
	.st0{fill:#00AFD9;}
</style>
<g>
	<rect x="64.5" y="86.5" class="st0" width="22" height="22"/>
	<rect x="89.5" y="98.5" class="st0" width="10" height="10"/>
	<rect x="112" y="125.5" class="st0" width="29.5" height="22"/>
	<rect x="107" y="87.5" class="st0" width="30" height="2"/>
	<rect x="107" y="94.5" class="st0" width="30" height="2"/>
	<rect x="107" y="102.5" class="st0" width="30" height="2"/>
	<rect x="66" y="127.5" class="st0" width="30" height="2"/>
	<rect x="66" y="134.5" class="st0" width="30" height="2"/>
	<rect x="66" y="142.5" class="st0" width="30" height="2"/>
	<rect x="64" y="165.5" class="st0" width="77" height="2"/>
	<rect x="64" y="172.5" class="st0" width="77" height="2"/>
	<rect x="64" y="180.5" class="st0" width="77" height="2"/>
	<path class="st0" d="M202,101C202,45.3,156.7,0,101,0S0,45.3,0,101s45.3,101,101,101c20.3,0,39.3-6.1,55.2-16.4h0.3v-0.2
		C183.9,167.3,202,136.2,202,101z M49.5,185.5v-116h105v114.8c-15.4,10-33.8,15.7-53.5,15.7C82.1,200,64.5,194.7,49.5,185.5z
		 M156.5,182.9V67.5l0,0v-1c0-3.3-3.7-6-7-6h-95c-3.3,0-7,2.7-7,6v1l0,0v116.8C20.1,166.6,2,135.9,2,101C2,46.4,46.4,2,101,2
		s99,44.4,99,99C200,135,182.7,165.1,156.5,182.9z"/>
</g>
</svg>
