<?xml version="1.0" encoding="utf-8"?>
<!-- Generator: Adobe Illustrator 24.2.3, SVG Export Plug-In . SVG Version: 6.00 Build 0)  -->
<svg version="1.1" id="レイヤー_1" xmlns="http://www.w3.org/2000/svg" xmlns:xlink="http://www.w3.org/1999/xlink" x="0px"
	 y="0px" viewBox="0 0 202 202" style="enable-background:new 0 0 202 202;" xml:space="preserve">
<style type="text/css">
	.st0{fill:#00AFD9;}
</style>
<g>
	<path class="st0" d="M153,58.4H55.1c-3.9,0-7,3.1-7,7v65.5c0,3.9,3.1,7,7,7h36.1v7h-6.8c-0.6,0-1,0.4-1,1v4.7c0,0.6,0.4,1,1,1h38.7
		c0.6,0,1-0.4,1-1v-4.7c0-0.6-0.4-1-1-1h-6.2v-7H153c3.9,0,7-3.1,7-7V65.4C160,61.5,156.8,58.4,153,58.4z M154,130.9
		c0,0.6-0.4,1-1,1H55.1c-0.6,0-1-0.4-1-1V65.4c0-0.6,0.4-1,1-1H153c0.6,0,1,0.4,1,1V130.9z"/>
	<rect x="82.5" y="64.5" class="st0" width="2" height="66"/>
	<rect x="60.5" y="80.5" class="st0" width="19" height="2"/>
	<rect x="60.5" y="88.5" class="st0" width="19" height="2"/>
	<rect x="60.5" y="97.5" class="st0" width="19" height="2"/>
	<rect x="60.5" y="106.5" class="st0" width="19" height="2"/>
	<path class="st0" d="M91.5,91.5h19c1.1,0,2-0.9,2-2v-11c0-1.1-0.9-2-2-2h-19c-1.1,0-2,0.9-2,2v11C89.5,90.6,90.4,91.5,91.5,91.5z"
		/>
	<path class="st0" d="M120.5,91.5h19c1.1,0,2-0.9,2-2v-11c0-1.1-0.9-2-2-2h-19c-1.1,0-2,0.9-2,2v11
		C118.5,90.6,119.4,91.5,120.5,91.5z"/>
	<path class="st0" d="M111.3,97.5H91.5c-1.7,0-3,1.3-3,3v7c0,1.7,1.3,3,3,3h19.8c1.7,0,3-1.3,3-3v-7
		C114.3,98.8,112.9,97.5,111.3,97.5z M112.3,107.5c0,0.6-0.4,1-1,1H91.5c-0.6,0-1-0.4-1-1v-7c0-0.6,0.4-1,1-1h19.8c0.6,0,1,0.4,1,1
		V107.5z"/>
	<path class="st0" d="M111.3,111.5H91.5c-1.7,0-3,1.3-3,3v7c0,1.7,1.3,3,3,3h19.8c1.7,0,3-1.3,3-3v-7
		C114.3,112.8,112.9,111.5,111.3,111.5z M112.3,121.5c0,0.6-0.4,1-1,1H91.5c-0.6,0-1-0.4-1-1v-7c0-0.6,0.4-1,1-1h19.8
		c0.6,0,1,0.4,1,1V121.5z"/>
	<path class="st0" d="M139.3,96.5h-18.8c-1.7,0-3,1.3-3,3v21c0,1.7,1.3,3,3,3h18.8c1.7,0,3-1.3,3-3v-21
		C142.3,97.8,140.9,96.5,139.3,96.5z M140.3,120.5c0,0.6-0.4,1-1,1h-18.8c-0.6,0-1-0.4-1-1v-21c0-0.6,0.4-1,1-1h18.8
		c0.6,0,1,0.4,1,1V120.5z"/>
	<path class="st0" d="M101,0C45.3,0,0,45.3,0,101s45.3,101,101,101s101-45.3,101-101S156.7,0,101,0z M101,200c-54.6,0-99-44.4-99-99
		S46.4,2,101,2s99,44.4,99,99S155.6,200,101,200z"/>
</g>
</svg>
