<?xml version="1.0" encoding="utf-8"?>
<!-- Generator: Adobe Illustrator 24.2.3, SVG Export Plug-In . SVG Version: 6.00 Build 0)  -->
<svg version="1.1" id="レイヤー_1" xmlns="http://www.w3.org/2000/svg" xmlns:xlink="http://www.w3.org/1999/xlink" x="0px"
	 y="0px" viewBox="0 0 202 202" style="enable-background:new 0 0 202 202;" xml:space="preserve">
<style type="text/css">
	.st0{fill:#00AFD9;}
</style>
<g>
	<path class="st0" d="M153,58.4H55.1c-3.9,0-7,3.1-7,7v65.5c0,3.9,3.1,7,7,7h36.1v7h-6.8c-0.6,0-1,0.4-1,1v4.7c0,0.6,0.4,1,1,1h38.7
		c0.6,0,1-0.4,1-1v-4.7c0-0.6-0.4-1-1-1h-6.2v-7H153c3.9,0,7-3.1,7-7V65.4C160,61.5,156.8,58.4,153,58.4z M154,130.9
		c0,0.6-0.4,1-1,1H55.1c-0.6,0-1-0.4-1-1V65.4c0-0.6,0.4-1,1-1H153c0.6,0,1,0.4,1,1V130.9z"/>
	<path class="st0" d="M95,95.7c-0.2-0.1-0.5,0-0.7,0.1L89.8,98c-0.8,0.2-1.3,1-1.1,1.7c0.1,0.6,0.6,1,1.1,1.1l4.5,2.2
		c0.7,0.3,1.2,0.1,1.2-0.8c0-0.6-0.4-1.2-1.1-1.4l-3.2-1.5l3.2-1.5c0.6-0.2,1.1-0.7,1.1-1.4C95.6,96.2,95.4,95.8,95,95.7z"/>
	<path class="st0" d="M105.4,92.5c-0.6-0.1-1.2,0.3-1.3,1c0,0,0,0,0,0l-3.4,11.7c-0.1,0.1-0.1,0.3-0.1,0.5c0,0.4,0.3,0.7,1,0.7
		c0.6,0.1,1.2-0.3,1.2-0.9c0,0,0,0,0,0l3.4-11.7c0.1-0.2,0.1-0.3,0.1-0.5C106.4,92.8,106.1,92.5,105.4,92.5z"/>
	<path class="st0" d="M117.3,98l-4.5-2.2c-0.3-0.3-0.8-0.2-1.1,0.1c-0.1,0.2-0.2,0.4-0.1,0.7c0,0.6,0.4,1.2,1.1,1.4l3.3,1.5
		l-3.3,1.5c-0.6,0.2-1.1,0.7-1.1,1.4c-0.1,0.4,0.2,0.8,0.6,0.9c0.2,0.1,0.5,0,0.6-0.1l4.5-2.2c0.8-0.2,1.3-1,1.1-1.8
		C118.3,98.6,117.9,98.1,117.3,98z"/>
	<path class="st0" d="M101,0C45.3,0,0,45.3,0,101s45.3,101,101,101s101-45.3,101-101S156.7,0,101,0z M101,200c-54.6,0-99-44.4-99-99
		S46.4,2,101,2s99,44.4,99,99S155.6,200,101,200z"/>
</g>
</svg>
